<svg xmlns="http://www.w3.org/2000/svg" viewBox="0 0 168 180"><defs><style>.cls-1,.cls-2{fill:#fff;}.cls-1{stroke:#000;}.cls-1,.cls-3{stroke-width:6px;}.cls-3{stroke:#fff;}</style></defs><title>65050689_1833101433459347_1829697471580733440_n</title><g id="Layer_2" data-name="Layer 2"><rect class="cls-1" x="21.37" y="19.87" width="84.45" height="128.17" rx="42.23" transform="translate(-40.25 66.37) rotate(-43.24)"/><rect class="cls-2" x="42.28" y="62.68" width="95.17" height="74.01" transform="translate(96.81 -34.35) rotate(45)"/><path class="cls-3" d="M145.87,99.28c16.74-16.24,18.49-44.74,2.25-61.47h0a42.22,42.22,0,0,0-59.71-.91L64.61,60l-.59.24C57.67,66,57.18,74.15,61.93,79.5h0a12.94,12.94,0,0,0,18.28,1.1l23.36-23.24Z"/><path class="cls-1" d="M101,54.3l46.13,46.25a6.93,6.93,0,0,1,.08,9.78l-5.39,5.38a6.91,6.91,0,0,1-9.78-.08l-22.31-22.3"/><path class="cls-1" d="M109.7,93.08,132.57,116a7,7,0,0,1,.21,9.9l-5.39,5.39a7,7,0,0,1-9.9-.21L94.86,108.4"/><path class="cls-1" d="M94.86,108.4l22.78,23.88a7,7,0,0,1,.25,9.95l-5.39,5.38a7,7,0,0,1-9.94-.24l-6.84-6.84"/><rect class="cls-3" x="78.43" y="138.36" width="21.33" height="29.01" rx="6.86" transform="translate(134.19 -18.23) rotate(45)"/><rect class="cls-3" x="62.82" y="123.55" width="21.33" height="29.43" rx="6.86" transform="translate(119.29 -11.47) rotate(45)"/><rect class="cls-3" x="47.66" y="108.81" width="21.33" height="28.83" rx="6.86" transform="translate(104.22 -5.15) rotate(45)"/><rect class="cls-3" x="33.33" y="93.38" width="21.33" height="28.78" rx="6.86" transform="translate(92.36 1.89) rotate(46.76)"/></g></svg>